<?xml version="1.0" encoding="utf-8"?>
<!-- Generator: Adobe Illustrator 23.0.5, SVG Export Plug-In . SVG Version: 6.00 Build 0)  -->
<svg version="1.1" id="Layer_1" xmlns="http://www.w3.org/2000/svg" xmlns:xlink="http://www.w3.org/1999/xlink" x="0px" y="0px"
	 viewBox="0 0 122.1 144.9" style="enable-background:new 0 0 122.1 144.9;" xml:space="preserve">
<style type="text/css">
	.st0{display:none;}
	.st1{display:inline;fill:none;stroke:#231F20;stroke-width:5;stroke-linecap:round;stroke-linejoin:round;stroke-miterlimit:10;}
	.st2{fill:none;stroke:#231F20;stroke-width:5;stroke-linejoin:round;stroke-miterlimit:10;}
	.st3{fill:none;stroke:#231F20;stroke-width:5;stroke-linecap:round;stroke-linejoin:round;stroke-miterlimit:10;}
	.st4{display:none;opacity:0.24;}
	.st5{fill:none;stroke:#231F20;stroke-width:5;stroke-miterlimit:10;}
	.st6{fill:#231F20;}
</style>
<g class="st0">
	<path class="st1" d="M83.5,45.9c0,8.9-4.9,16.6-12.2,20.7c0,3.2-0.4,6.3-1.1,9H49.8c-0.1,0-0.1,0-0.2,0c-0.7-2.7-1.1-5.8-1.1-9
		c-7.3-4-12.2-11.8-12.2-20.7c0-13,10.5-23.6,23.6-23.6S83.5,32.9,83.5,45.9z"/>
	<path class="st1" d="M68.2,83.9v2.8c0,4.5-3.7,8.3-8.2,8.3s-8.3-3.7-8.3-8.3v-2.8H68.2z"/>
	<path class="st1" d="M74.7,79.3V80c0,2.1-1.7,3.8-3.8,3.8H49.8c-2.1,0-3.8-1.7-3.8-3.8v-0.7c0-2,1.6-3.7,3.6-3.8c0.1,0,0.1,0,0.2,0
		h21.1C73,75.5,74.7,77.2,74.7,79.3z"/>
	<line class="st1" x1="59.9" y1="46.4" x2="59.9" y2="75.5"/>
	<line class="st1" x1="52.9" y1="46.4" x2="66.9" y2="46.4"/>
</g>
<g>
	<g>
		<circle class="st2" cx="54" cy="72.3" r="35.8"/>
		<path class="st2" d="M106.3,125.1l-2,2c-2.2,2.2-5.8,2.2-8,0l-19.3-19.3c-2.2-2.2-2.2-5.8,0-8l2-2c2.2-2.2,5.8-2.2,8,0l19.3,19.3
			C108.5,119.2,108.5,122.9,106.3,125.1z"/>
	</g>
	<path class="st3" d="M36.7,69.2c-1.3,12.4,9.4,24,22,22"/>
</g>
<g class="st4">
</g>
<path class="st5" d="M115.4,30.5v98.8c0,6.6-5.4,12-12,12h-87c-6.6,0-12-5.4-12-12V20c0-6.6,5.4-12,12-12h76.5L115.4,30.5z"/>
<path class="st6" d="M91.5,19.3V9.8c0-0.1,0.1-0.1,0.2-0.1l20.7,20.7c0.1,0.1,0,0.2-0.1,0.2h-9.5C96.7,30.7,91.5,25.6,91.5,19.3z"/>
</svg>
